<svg version="1.1" id="Layer_1" xmlns="http://www.w3.org/2000/svg" xmlns:xlink="http://www.w3.org/1999/xlink" x="0px" y="0px"
	 width="100%" viewBox="0 0 1000 1000" enable-background="new 0 0 1000 1000" xml:space="preserve">
<path fill="#000000" opacity="1.000000" stroke="none" 
	d="
M690.000000,1001.000000 
	C460.000000,1001.000000 230.500000,1001.000000 1.000000,1001.000000 
	C1.000000,667.666687 1.000000,334.333344 1.000000,1.000000 
	C334.333344,1.000000 667.666687,1.000000 1001.000000,1.000000 
	C1001.000000,334.333344 1001.000000,667.666687 1001.000000,1001.000000 
	C897.500000,1001.000000 794.000000,1001.000000 690.000000,1001.000000 
M527.848633,114.913849 
	C526.581299,114.609947 525.305664,114.010773 524.047852,114.046150 
	C502.678223,114.647156 481.259186,114.634727 459.960419,116.223907 
	C444.868378,117.349976 429.817291,120.071182 414.965454,123.134956 
	C390.041077,128.276581 365.893585,136.229202 342.752350,146.812286 
	C321.051941,156.736420 299.797241,167.674759 280.606506,182.021042 
	C266.184204,192.802628 251.614853,203.533340 238.262756,215.564926 
	C220.344589,231.711014 204.403778,249.801102 190.026871,269.307739 
	C166.508499,301.217499 147.589401,335.517578 135.076523,373.129425 
	C129.695923,389.302734 125.185898,405.834259 121.435654,422.463593 
	C116.959755,442.310608 114.298241,462.541565 114.086082,482.929993 
	C113.848488,505.762756 113.013824,528.651794 116.975151,551.329163 
	C118.941032,562.583252 119.890274,574.085449 122.756905,585.095947 
	C127.587151,603.648560 132.315430,622.404419 139.414490,640.143127 
	C147.498184,660.342285 157.243301,680.019958 167.901077,699.006653 
	C179.347260,719.398010 192.950287,738.614685 209.227707,755.540955 
	C224.367050,771.283630 239.699142,786.970642 256.187592,801.248840 
	C271.827332,814.792053 289.265869,826.099976 307.413422,836.340027 
	C327.377380,847.604919 347.817932,857.571594 369.438812,865.183105 
	C392.701477,873.372620 416.328064,880.127075 440.877625,882.991333 
	C457.999817,884.988892 475.167603,886.860107 492.369049,887.819275 
	C503.583160,888.444580 514.902039,887.495972 526.159119,886.946899 
	C534.704834,886.530151 543.341064,886.281433 551.735413,884.808655 
	C567.925903,881.967773 584.041504,878.608521 600.064819,874.927368 
	C622.992920,869.659790 644.982056,861.457031 666.132446,851.284119 
	C695.082642,837.359741 722.305359,820.630798 746.900879,799.739014 
	C761.786865,787.094666 776.242188,774.110107 789.202271,759.430969 
	C803.763184,742.938782 816.899841,725.481567 828.734680,706.924927 
	C844.168884,682.724548 856.501282,657.093750 866.007996,630.079041 
	C873.208313,609.618652 878.551086,588.693542 882.176270,567.256531 
	C885.809570,545.771057 888.109253,524.216248 887.901245,502.458374 
	C887.781372,489.918488 886.968994,477.363281 885.923523,464.860504 
	C884.940857,453.108032 883.901855,441.290924 881.718323,429.722931 
	C877.458801,407.156342 871.153076,385.118561 863.080627,363.562592 
	C853.592957,338.227295 841.859070,313.988007 826.795410,291.600586 
	C816.040161,275.616089 804.370422,260.093445 791.704468,245.591293 
	C779.081726,231.138733 765.536255,217.230988 750.872925,204.893936 
	C735.686035,192.116379 719.181335,180.690750 702.305603,170.197571 
	C686.687500,160.486374 670.218994,151.880096 653.395325,144.436371 
	C632.131104,135.027908 609.869324,128.083969 587.089233,123.091866 
	C567.871704,118.880447 548.553772,115.301125 527.848633,114.913849 
z"/>
<path fill="#2563EB" opacity="1.000000" stroke="none" 
	d="
M528.318665,114.949722 
	C548.553772,115.301125 567.871704,118.880447 587.089233,123.091866 
	C609.869324,128.083969 632.131104,135.027908 653.395325,144.436371 
	C670.218994,151.880096 686.687500,160.486374 702.305603,170.197571 
	C719.181335,180.690750 735.686035,192.116379 750.872925,204.893936 
	C765.536255,217.230988 779.081726,231.138733 791.704468,245.591293 
	C804.370422,260.093445 816.040161,275.616089 826.795410,291.600586 
	C841.859070,313.988007 853.592957,338.227295 863.080627,363.562592 
	C871.153076,385.118561 877.458801,407.156342 881.718323,429.722931 
	C883.901855,441.290924 884.940857,453.108032 885.923523,464.860504 
	C886.968994,477.363281 887.781372,489.918488 887.901245,502.458374 
	C888.109253,524.216248 885.809570,545.771057 882.176270,567.256531 
	C878.551086,588.693542 873.208313,609.618652 866.007996,630.079041 
	C856.501282,657.093750 844.168884,682.724548 828.734680,706.924927 
	C816.899841,725.481567 803.763184,742.938782 789.202271,759.430969 
	C776.242188,774.110107 761.786865,787.094666 746.900879,799.739014 
	C722.305359,820.630798 695.082642,837.359741 666.132446,851.284119 
	C644.982056,861.457031 622.992920,869.659790 600.064819,874.927368 
	C584.041504,878.608521 567.925903,881.967773 551.735413,884.808655 
	C543.341064,886.281433 534.704834,886.530151 526.159119,886.946899 
	C514.902039,887.495972 503.583160,888.444580 492.369049,887.819275 
	C475.167603,886.860107 457.999817,884.988892 440.877625,882.991333 
	C416.328064,880.127075 392.701477,873.372620 369.438812,865.183105 
	C347.817932,857.571594 327.377380,847.604919 307.413422,836.340027 
	C289.265869,826.099976 271.827332,814.792053 256.187592,801.248840 
	C239.699142,786.970642 224.367050,771.283630 209.227707,755.540955 
	C192.950287,738.614685 179.347260,719.398010 167.901077,699.006653 
	C157.243301,680.019958 147.498184,660.342285 139.414490,640.143127 
	C132.315430,622.404419 127.587151,603.648560 122.756905,585.095947 
	C119.890274,574.085449 118.941032,562.583252 116.975151,551.329163 
	C113.013824,528.651794 113.848488,505.762756 114.086082,482.929993 
	C114.298241,462.541565 116.959755,442.310608 121.435654,422.463593 
	C125.185898,405.834259 129.695923,389.302734 135.076523,373.129425 
	C147.589401,335.517578 166.508499,301.217499 190.026871,269.307739 
	C204.403778,249.801102 220.344589,231.711014 238.262756,215.564926 
	C251.614853,203.533340 266.184204,192.802628 280.606506,182.021042 
	C299.797241,167.674759 321.051941,156.736420 342.752350,146.812286 
	C365.893585,136.229202 390.041077,128.276581 414.965454,123.134956 
	C429.817291,120.071182 444.868378,117.349976 459.960419,116.223907 
	C481.259186,114.634727 502.678223,114.647156 524.047852,114.046150 
	C525.305664,114.010773 526.581299,114.609947 528.318665,114.949722 
M757.276855,618.247559 
	C763.260071,627.756470 769.243286,637.265320 775.403809,647.055969 
	C776.180969,646.066345 776.714478,645.610901 776.966675,645.032837 
	C782.013611,633.463318 786.878906,621.811279 792.137451,610.339355 
	C793.778992,606.758301 794.452209,604.021179 792.096008,600.306396 
	C751.609741,536.476013 711.074463,472.674561 671.074463,408.539612 
	C663.147644,395.830017 646.278564,393.719910 636.878479,406.740723 
	C632.203552,413.216187 627.096252,419.389557 622.013977,425.559052 
	C600.618713,451.531006 579.150696,477.442932 557.727234,503.391693 
	C549.480469,513.380493 541.281677,523.408997 531.821289,534.929077 
	C529.853210,532.215210 528.553406,529.798706 526.688782,527.952698 
	C514.255615,515.643677 501.667664,503.491150 489.199493,491.217194 
	C481.157227,483.300201 467.070831,484.532410 459.602509,493.217407 
	C431.685242,525.682617 403.247803,557.700317 375.030243,589.907654 
	C370.366577,595.230713 369.698639,595.331055 364.415131,590.367676 
	C350.085693,576.906494 335.532013,563.671814 321.540771,549.867432 
	C312.753876,541.197815 298.661591,542.281860 291.102264,551.179504 
	C284.852570,558.535706 278.019440,565.403870 271.324432,572.372559 
	C254.931641,589.435547 238.515121,606.476318 221.995407,623.416077 
	C218.753021,626.740906 217.024734,629.711365 220.310959,634.075439 
	C221.974594,636.284729 222.715912,639.168945 224.020813,641.671631 
	C227.818405,648.955139 231.689957,656.200073 235.799225,663.964111 
	C237.505981,662.461304 238.672470,661.579468 239.669006,660.535400 
	C260.606384,638.598877 281.585388,616.701294 302.383392,594.633179 
	C305.637360,591.180481 307.746979,590.406067 311.538483,594.121643 
	C326.056458,608.348816 340.773865,622.380615 355.722626,636.153442 
	C358.962738,639.138611 363.226440,641.754150 367.446198,642.778381 
	C375.921722,644.835449 382.494507,640.651978 387.985870,634.317078 
	C411.120697,607.628418 434.338043,581.011414 457.509460,554.354553 
	C463.479370,547.486694 469.391937,540.569031 475.556152,533.412659 
	C477.150452,534.894348 478.366882,535.990173 479.545410,537.125366 
	C493.585999,550.649475 507.572754,564.229858 521.673523,577.690918 
	C531.789856,587.348328 541.370728,584.915344 549.537781,575.603699 
	C552.939331,571.725464 556.074219,567.613953 559.346497,563.621704 
	C586.802795,530.124634 614.260010,496.628387 641.725647,463.139038 
	C644.939758,459.219971 648.207092,455.344513 651.793396,451.036072 
	C653.195862,452.935669 654.142639,454.057373 654.915100,455.288513 
	C665.617249,472.346252 676.266724,489.437103 686.985657,506.484253 
	C710.284363,543.538208 733.615723,580.571716 757.276855,618.247559 
M628.112976,383.784454 
	C633.950256,379.951691 639.787903,376.119659 645.624634,372.286011 
	C653.518799,367.100952 651.477539,366.500946 660.291931,372.175690 
	C666.475525,376.156799 672.608154,380.217010 679.865356,384.962311 
	C677.696960,375.434174 676.316040,367.187103 673.843750,359.281372 
	C672.240112,354.153656 674.273499,351.687561 677.921875,349.064911 
	C684.342590,344.449280 690.590210,339.592682 696.910278,334.836975 
	C696.802856,334.358551 696.695435,333.880127 696.588013,333.401703 
	C685.807617,332.775970 675.027283,332.150208 664.215820,331.522644 
	C660.555237,321.157501 656.871765,310.727631 652.998596,299.760651 
	C649.864868,308.299438 646.750183,316.123871 644.130310,324.110626 
	C641.510315,332.097839 641.719360,331.864716 633.490723,332.077301 
	C625.308044,332.288666 617.143433,333.197906 608.970886,333.801147 
	C612.454346,337.610626 615.927734,340.178406 619.396179,342.752625 
	C622.869385,345.330261 626.493286,347.736877 629.735291,350.578827 
	C631.127136,351.798920 632.779114,354.127716 632.500305,355.612396 
	C631.059448,363.284607 628.943848,370.827393 627.274292,378.461395 
	C626.889587,380.220245 627.331360,382.159882 628.112976,383.784454 
z"/>
<path fill="#FEFEFF" opacity="1.000000" stroke="none" 
	d="
M757.105286,617.930542 
	C733.615723,580.571716 710.284363,543.538208 686.985657,506.484253 
	C676.266724,489.437103 665.617249,472.346252 654.915100,455.288513 
	C654.142639,454.057373 653.195862,452.935669 651.793396,451.036072 
	C648.207092,455.344513 644.939758,459.219971 641.725647,463.139038 
	C614.260010,496.628387 586.802795,530.124634 559.346497,563.621704 
	C556.074219,567.613953 552.939331,571.725464 549.537781,575.603699 
	C541.370728,584.915344 531.789856,587.348328 521.673523,577.690918 
	C507.572754,564.229858 493.585999,550.649475 479.545410,537.125366 
	C478.366882,535.990173 477.150452,534.894348 475.556152,533.412659 
	C469.391937,540.569031 463.479370,547.486694 457.509460,554.354553 
	C434.338043,581.011414 411.120697,607.628418 387.985870,634.317078 
	C382.494507,640.651978 375.921722,644.835449 367.446198,642.778381 
	C363.226440,641.754150 358.962738,639.138611 355.722626,636.153442 
	C340.773865,622.380615 326.056458,608.348816 311.538483,594.121643 
	C307.746979,590.406067 305.637360,591.180481 302.383392,594.633179 
	C281.585388,616.701294 260.606384,638.598877 239.669006,660.535400 
	C238.672470,661.579468 237.505981,662.461304 235.799225,663.964111 
	C231.689957,656.200073 227.818405,648.955139 224.020813,641.671631 
	C222.715912,639.168945 221.974594,636.284729 220.310959,634.075439 
	C217.024734,629.711365 218.753021,626.740906 221.995407,623.416077 
	C238.515121,606.476318 254.931641,589.435547 271.324432,572.372559 
	C278.019440,565.403870 284.852570,558.535706 291.102264,551.179504 
	C298.661591,542.281860 312.753876,541.197815 321.540771,549.867432 
	C335.532013,563.671814 350.085693,576.906494 364.415131,590.367676 
	C369.698639,595.331055 370.366577,595.230713 375.030243,589.907654 
	C403.247803,557.700317 431.685242,525.682617 459.602509,493.217407 
	C467.070831,484.532410 481.157227,483.300201 489.199493,491.217194 
	C501.667664,503.491150 514.255615,515.643677 526.688782,527.952698 
	C528.553406,529.798706 529.853210,532.215210 531.821289,534.929077 
	C541.281677,523.408997 549.480469,513.380493 557.727234,503.391693 
	C579.150696,477.442932 600.618713,451.531006 622.013977,425.559052 
	C627.096252,419.389557 632.203552,413.216187 636.878479,406.740723 
	C646.278564,393.719910 663.147644,395.830017 671.074463,408.539612 
	C711.074463,472.674561 751.609741,536.476013 792.096008,600.306396 
	C794.452209,604.021179 793.778992,606.758301 792.137451,610.339355 
	C786.878906,621.811279 782.013611,633.463318 776.966675,645.032837 
	C776.714478,645.610901 776.180969,646.066345 775.403809,647.055969 
	C769.243286,637.265320 763.260071,627.756470 757.105286,617.930542 
z"/>
<path fill="#FDFEFF" opacity="1.000000" stroke="none" 
	d="
M627.752930,383.900391 
	C627.331360,382.159882 626.889587,380.220245 627.274292,378.461395 
	C628.943848,370.827393 631.059448,363.284607 632.500305,355.612396 
	C632.779114,354.127716 631.127136,351.798920 629.735291,350.578827 
	C626.493286,347.736877 622.869385,345.330261 619.396179,342.752625 
	C615.927734,340.178406 612.454346,337.610626 608.970886,333.801147 
	C617.143433,333.197906 625.308044,332.288666 633.490723,332.077301 
	C641.719360,331.864716 641.510315,332.097839 644.130310,324.110626 
	C646.750183,316.123871 649.864868,308.299438 652.998596,299.760651 
	C656.871765,310.727631 660.555237,321.157501 664.215820,331.522644 
	C675.027283,332.150208 685.807617,332.775970 696.588013,333.401703 
	C696.695435,333.880127 696.802856,334.358551 696.910278,334.836975 
	C690.590210,339.592682 684.342590,344.449280 677.921875,349.064911 
	C674.273499,351.687561 672.240112,354.153656 673.843750,359.281372 
	C676.316040,367.187103 677.696960,375.434174 679.865356,384.962311 
	C672.608154,380.217010 666.475525,376.156799 660.291931,372.175690 
	C651.477539,366.500946 653.518799,367.100952 645.624634,372.286011 
	C639.787903,376.119659 633.950256,379.951691 627.752930,383.900391 
z"/>
</svg>